<?xml version="1.0" encoding="UTF-8" standalone="no"?>
<!DOCTYPE svg PUBLIC "-//W3C//DTD SVG 1.1//EN"
 "http://www.w3.org/Graphics/SVG/1.1/DTD/svg11.dtd">
<!-- Generated by graphviz version 2.40.1 (20161225.0304)
 -->
<!-- Title: G Pages: 1 -->
<svg width="172pt" height="188pt"
 viewBox="0.00 0.00 172.00 188.00" xmlns="http://www.w3.org/2000/svg" xmlns:xlink="http://www.w3.org/1999/xlink">
<g id="graph0" class="graph" transform="scale(1 1) rotate(0) translate(4 184)">
<title>G</title>
<polygon fill="#ffffff" stroke="transparent" points="-4,4 -4,-184 168,-184 168,4 -4,4"/>
<!-- b -->
<g id="node1" class="node">
<title>b</title>
<ellipse fill="#d3d3d3" stroke="#d3d3d3" cx="82" cy="-162" rx="27" ry="18"/>
<text text-anchor="middle" x="82" y="-157.8" font-family="Times,serif" font-size="14.00" fill="#000000">b</text>
</g>
<!-- b&#39;&#39; -->
<g id="node2" class="node">
<title>b&#39;&#39;</title>
<ellipse fill="none" stroke="#000000" cx="27" cy="-90" rx="27" ry="18"/>
<text text-anchor="middle" x="27" y="-85.8" font-family="Times,serif" font-size="14.00" fill="#000000">b&#39;&#39;</text>
</g>
<!-- b&#45;&gt;b&#39;&#39; -->
<g id="edge1" class="edge">
<title>b&#45;&gt;b&#39;&#39;</title>
<path fill="none" stroke="#000000" stroke-dasharray="1,5" d="M69.5196,-145.6621C62.4876,-136.4564 53.5653,-124.7764 45.7117,-114.4953"/>
<polygon fill="#000000" stroke="#000000" points="48.2828,-112.0953 39.431,-106.2733 42.72,-116.3446 48.2828,-112.0953"/>
</g>
<!-- a -->
<g id="node3" class="node">
<title>a</title>
<ellipse fill="none" stroke="#000000" cx="82" cy="-18" rx="27" ry="18"/>
<text text-anchor="middle" x="82" y="-13.8" font-family="Times,serif" font-size="14.00" fill="#000000">a</text>
</g>
<!-- b&#45;&gt;a -->
<g id="edge5" class="edge">
<title>b&#45;&gt;a</title>
<path fill="none" stroke="#000000" d="M82,-143.7623C82,-119.201 82,-75.2474 82,-46.3541"/>
<polygon fill="#000000" stroke="#000000" points="85.5001,-46.0896 82,-36.0896 78.5001,-46.0897 85.5001,-46.0896"/>
</g>
<!-- b&#39; -->
<g id="node4" class="node">
<title>b&#39;</title>
<ellipse fill="none" stroke="#000000" cx="137" cy="-90" rx="27" ry="18"/>
<text text-anchor="middle" x="137" y="-85.8" font-family="Times,serif" font-size="14.00" fill="#000000">b&#39;</text>
</g>
<!-- b&#45;&gt;b&#39; -->
<g id="edge3" class="edge">
<title>b&#45;&gt;b&#39;</title>
<path fill="none" stroke="#000000" stroke-dasharray="1,5" d="M94.4804,-145.6621C101.5124,-136.4564 110.4347,-124.7764 118.2883,-114.4953"/>
<polygon fill="#000000" stroke="#000000" points="121.28,-116.3446 124.569,-106.2733 115.7172,-112.0953 121.28,-116.3446"/>
</g>
<!-- b&#39;&#39;&#45;&gt;a -->
<g id="edge2" class="edge">
<title>b&#39;&#39;&#45;&gt;a</title>
<path fill="none" stroke="#000000" d="M39.4804,-73.6621C46.5124,-64.4564 55.4347,-52.7764 63.2883,-42.4953"/>
<polygon fill="#000000" stroke="#000000" points="66.28,-44.3446 69.569,-34.2733 60.7172,-40.0953 66.28,-44.3446"/>
</g>
<!-- b&#39;&#45;&gt;a -->
<g id="edge4" class="edge">
<title>b&#39;&#45;&gt;a</title>
<path fill="none" stroke="#000000" d="M124.5196,-73.6621C117.4876,-64.4564 108.5653,-52.7764 100.7117,-42.4953"/>
<polygon fill="#000000" stroke="#000000" points="103.2828,-40.0953 94.431,-34.2733 97.72,-44.3446 103.2828,-40.0953"/>
</g>
</g>
</svg>
