<?xml version="1.0" encoding="UTF-8" standalone="no"?>
<!DOCTYPE svg PUBLIC "-//W3C//DTD SVG 1.1//EN"
 "http://www.w3.org/Graphics/SVG/1.1/DTD/svg11.dtd">
<!-- Generated by graphviz version 2.38.0 (20140413.2041)
 -->
<!-- Title: G Pages: 1 -->
<svg width="332pt" height="90pt"
 viewBox="0.00 0.00 332.00 90.00" xmlns="http://www.w3.org/2000/svg" xmlns:xlink="http://www.w3.org/1999/xlink">
<g id="graph0" class="graph" transform="scale(1 1) rotate(0) translate(4 86)">
<title>G</title>
<polygon fill="white" stroke="none" points="-4,4 -4,-86 328,-86 328,4 -4,4"/>
<!-- b -->
<g id="node1" class="node"><title>b</title>
<ellipse fill="lightgray" stroke="lightgray" cx="27" cy="-64" rx="27" ry="18"/>
<text text-anchor="middle" x="27" y="-59.8" font-family="Times,serif" font-size="14.00">b</text>
</g>
<!-- b&#39; -->
<g id="node2" class="node"><title>b&#39;</title>
<ellipse fill="lightgray" stroke="lightgray" cx="117" cy="-64" rx="27" ry="18"/>
<text text-anchor="middle" x="117" y="-59.8" font-family="Times,serif" font-size="14.00">b&#39;</text>
</g>
<!-- b&#45;&gt;b&#39; -->
<g id="edge1" class="edge"><title>b&#45;&gt;b&#39;</title>
<path fill="none" stroke="black" stroke-dasharray="1,5" d="M54.4029,-64C62.3932,-64 71.3106,-64 79.8241,-64"/>
<polygon fill="black" stroke="black" points="79.919,-67.5001 89.919,-64 79.919,-60.5001 79.919,-67.5001"/>
</g>
<!-- a -->
<g id="node4" class="node"><title>a</title>
<ellipse fill="none" stroke="black" cx="297" cy="-18" rx="27" ry="18"/>
<text text-anchor="middle" x="297" y="-13.8" font-family="Times,serif" font-size="14.00">a</text>
</g>
<!-- b&#45;&gt;a -->
<g id="edge4" class="edge"><title>b&#45;&gt;a</title>
<path fill="none" stroke="black" d="M49.0536,-53.3588C60.8403,-47.78 75.9515,-41.2432 90,-37 147.564,-19.6134 217.945,-16.8419 259.756,-17.0055"/>
<polygon fill="black" stroke="black" points="259.964,-20.5076 269.998,-17.1072 260.034,-13.508 259.964,-20.5076"/>
</g>
<!-- b&#39;&#39; -->
<g id="node3" class="node"><title>b&#39;&#39;</title>
<ellipse fill="none" stroke="black" cx="207" cy="-64" rx="27" ry="18"/>
<text text-anchor="middle" x="207" y="-59.8" font-family="Times,serif" font-size="14.00">b&#39;&#39;</text>
</g>
<!-- b&#39;&#45;&gt;b&#39;&#39; -->
<g id="edge2" class="edge"><title>b&#39;&#45;&gt;b&#39;&#39;</title>
<path fill="none" stroke="black" stroke-dasharray="1,5" d="M144.403,-64C152.393,-64 161.311,-64 169.824,-64"/>
<polygon fill="black" stroke="black" points="169.919,-67.5001 179.919,-64 169.919,-60.5001 169.919,-67.5001"/>
</g>
<!-- b&#39;&#45;&gt;a -->
<g id="edge3" class="edge"><title>b&#39;&#45;&gt;a</title>
<path fill="none" stroke="black" d="M139.031,-53.2838C150.811,-47.6822 165.923,-41.1477 180,-37 206.142,-29.2974 236.577,-24.4606 259.712,-21.5958"/>
<polygon fill="black" stroke="black" points="260.261,-25.0554 269.786,-20.415 259.447,-18.103 260.261,-25.0554"/>
</g>
<!-- b&#39;&#39;&#45;&gt;a -->
<g id="edge5" class="edge"><title>b&#39;&#39;&#45;&gt;a</title>
<path fill="none" stroke="black" d="M228.855,-53.0986C240.033,-47.2553 253.998,-39.9556 266.293,-33.5289"/>
<polygon fill="black" stroke="black" points="268.054,-36.5575 275.295,-28.8231 264.811,-30.3539 268.054,-36.5575"/>
</g>
</g>
</svg>
