<?xml version="1.0" encoding="UTF-8" standalone="no"?>
<!DOCTYPE svg PUBLIC "-//W3C//DTD SVG 1.1//EN"
 "http://www.w3.org/Graphics/SVG/1.1/DTD/svg11.dtd">
<!-- Generated by graphviz version 2.40.1 (20161225.0304)
 -->
<!-- Title: G Pages: 1 -->
<svg width="337pt" height="111pt"
 viewBox="0.00 0.00 336.52 110.88" xmlns="http://www.w3.org/2000/svg" xmlns:xlink="http://www.w3.org/1999/xlink">
<g id="graph0" class="graph" transform="scale(1 1) rotate(0) translate(4 106.8833)">
<title>G</title>
<polygon fill="#ffffff" stroke="transparent" points="-4,4 -4,-106.8833 332.5238,-106.8833 332.5238,4 -4,4"/>
<!-- b -->
<g id="node1" class="node">
<title>b</title>
<ellipse fill="#d3d3d3" stroke="#d3d3d3" cx="27" cy="-30.8833" rx="27" ry="18"/>
<text text-anchor="middle" x="27" y="-26.6833" font-family="Times,serif" font-size="14.00" fill="#000000">b</text>
</g>
<!-- b&#39;&#39; -->
<g id="node2" class="node">
<title>b&#39;&#39;</title>
<ellipse fill="#d3d3d3" stroke="#d3d3d3" cx="117" cy="-84.8833" rx="27" ry="18"/>
<text text-anchor="middle" x="117" y="-80.6833" font-family="Times,serif" font-size="14.00" fill="#000000">b&#39;&#39;</text>
</g>
<!-- b&#45;&gt;b&#39;&#39; -->
<g id="edge1" class="edge">
<title>b&#45;&gt;b&#39;&#39;</title>
<path fill="none" stroke="#000000" stroke-dasharray="1,5" d="M47.4224,-43.1368C59.3897,-50.3172 74.7024,-59.5048 87.9143,-67.4319"/>
<polygon fill="#000000" stroke="#000000" points="86.2827,-70.5346 96.6584,-72.6784 89.8842,-64.5322 86.2827,-70.5346"/>
</g>
<!-- a -->
<g id="node3" class="node">
<title>a</title>
<ellipse fill="none" stroke="#000000" cx="301.5238" cy="-45.8833" rx="27" ry="18"/>
<text text-anchor="middle" x="301.5238" y="-41.6833" font-family="Times,serif" font-size="14.00" fill="#000000">a</text>
</g>
<!-- b&#45;&gt;a -->
<g id="edge7" class="edge">
<title>b&#45;&gt;a</title>
<path fill="none" stroke="#000000" d="M47.8758,-19.3992C59.8215,-13.4858 75.3126,-6.898 90,-3.8833 153.832,9.2187 228.6404,-14.9081 269.9954,-31.6982"/>
<polygon fill="#000000" stroke="#000000" points="268.6972,-34.9489 279.2737,-35.5719 271.3941,-28.4892 268.6972,-34.9489"/>
</g>
<!-- b&#39; -->
<g id="node4" class="node">
<title>b&#39;</title>
<ellipse fill="#d3d3d3" stroke="#d3d3d3" cx="117" cy="-30.8833" rx="27" ry="18"/>
<text text-anchor="middle" x="117" y="-26.6833" font-family="Times,serif" font-size="14.00" fill="#000000">b&#39;</text>
</g>
<!-- b&#45;&gt;b&#39; -->
<g id="edge3" class="edge">
<title>b&#45;&gt;b&#39;</title>
<path fill="none" stroke="#000000" stroke-dasharray="1,5" d="M54.003,-30.8833C62.0277,-30.8833 70.9665,-30.8833 79.5309,-30.8833"/>
<polygon fill="#000000" stroke="#000000" points="79.7051,-34.3834 89.705,-30.8833 79.705,-27.3834 79.7051,-34.3834"/>
</g>
<!-- b&#39;&#39;&#45;&gt;a -->
<g id="edge2" class="edge">
<title>b&#39;&#39;&#45;&gt;a</title>
<path fill="none" stroke="#000000" d="M141.4796,-92.9417C166.5557,-99.8651 206.3181,-107.1103 238.5238,-95.8833 254.3792,-90.3561 269.2397,-78.9893 280.5416,-68.4885"/>
<polygon fill="#000000" stroke="#000000" points="283.0528,-70.9282 287.7659,-61.4394 278.1642,-65.9181 283.0528,-70.9282"/>
</g>
<!-- newb -->
<g id="node5" class="node">
<title>newb</title>
<ellipse fill="none" stroke="#000000" cx="209.2619" cy="-68.8833" rx="29.0257" ry="18"/>
<text text-anchor="middle" x="209.2619" y="-64.6833" font-family="Times,serif" font-size="14.00" fill="#000000">newb</text>
</g>
<!-- b&#39;&#39;&#45;&gt;newb -->
<g id="edge6" class="edge">
<title>b&#39;&#39;&#45;&gt;newb</title>
<path fill="none" stroke="#000000" stroke-dasharray="1,5" d="M143.1918,-80.3412C151.8772,-78.8349 161.7304,-77.1262 171.127,-75.4967"/>
<polygon fill="#000000" stroke="#000000" points="171.8123,-78.9301 181.0672,-73.7728 170.6162,-72.0331 171.8123,-78.9301"/>
</g>
<!-- b&#39;&#45;&gt;a -->
<g id="edge4" class="edge">
<title>b&#39;&#45;&gt;a</title>
<path fill="none" stroke="#000000" d="M143.8313,-33.0645C175.6727,-35.6529 228.9355,-39.9826 264.6381,-42.8849"/>
<polygon fill="#000000" stroke="#000000" points="264.4093,-46.3777 274.6601,-43.6996 264.9766,-39.4008 264.4093,-46.3777"/>
</g>
<!-- b&#39;&#45;&gt;newb -->
<g id="edge5" class="edge">
<title>b&#39;&#45;&gt;newb</title>
<path fill="none" stroke="#000000" stroke-dasharray="1,5" d="M140.2816,-40.4723C150.8747,-44.8353 163.6183,-50.0841 175.2543,-54.8766"/>
<polygon fill="#000000" stroke="#000000" points="174.1171,-58.1934 184.6964,-58.7655 176.7829,-51.7209 174.1171,-58.1934"/>
</g>
<!-- newb&#45;&gt;a -->
<g id="edge8" class="edge">
<title>newb&#45;&gt;a</title>
<path fill="none" stroke="#000000" d="M236.4445,-62.107C245.7548,-59.786 256.3114,-57.1543 266.172,-54.6962"/>
<polygon fill="#000000" stroke="#000000" points="267.258,-58.0327 276.1145,-52.2176 265.5648,-51.2405 267.258,-58.0327"/>
</g>
</g>
</svg>
