<?xml version="1.0" encoding="UTF-8" standalone="no"?>
<!DOCTYPE svg PUBLIC "-//W3C//DTD SVG 1.1//EN"
 "http://www.w3.org/Graphics/SVG/1.1/DTD/svg11.dtd">
<!-- Generated by graphviz version 2.38.0 (20140413.2041)
 -->
<!-- Title: G Pages: 1 -->
<svg width="172pt" height="188pt"
 viewBox="0.00 0.00 172.00 188.00" xmlns="http://www.w3.org/2000/svg" xmlns:xlink="http://www.w3.org/1999/xlink">
<g id="graph0" class="graph" transform="scale(1 1) rotate(0) translate(4 184)">
<title>G</title>
<polygon fill="white" stroke="none" points="-4,4 -4,-184 168,-184 168,4 -4,4"/>
<!-- b -->
<g id="node1" class="node"><title>b</title>
<ellipse fill="lightgray" stroke="lightgray" cx="82" cy="-162" rx="27" ry="18"/>
<text text-anchor="middle" x="82" y="-157.8" font-family="Times,serif" font-size="14.00">b</text>
</g>
<!-- b&#39;&#39; -->
<g id="node2" class="node"><title>b&#39;&#39;</title>
<ellipse fill="none" stroke="black" cx="27" cy="-90" rx="27" ry="18"/>
<text text-anchor="middle" x="27" y="-85.8" font-family="Times,serif" font-size="14.00">b&#39;&#39;</text>
</g>
<!-- b&#45;&gt;b&#39;&#39; -->
<g id="edge1" class="edge"><title>b&#45;&gt;b&#39;&#39;</title>
<path fill="none" stroke="black" stroke-dasharray="1,5" d="M70.0658,-145.811C62.7864,-136.546 53.3374,-124.52 45.1456,-114.094"/>
<polygon fill="black" stroke="black" points="47.8413,-111.86 38.9109,-106.159 42.337,-116.185 47.8413,-111.86"/>
</g>
<!-- a -->
<g id="node3" class="node"><title>a</title>
<ellipse fill="none" stroke="black" cx="82" cy="-18" rx="27" ry="18"/>
<text text-anchor="middle" x="82" y="-13.8" font-family="Times,serif" font-size="14.00">a</text>
</g>
<!-- b&#45;&gt;a -->
<g id="edge5" class="edge"><title>b&#45;&gt;a</title>
<path fill="none" stroke="black" d="M82,-143.871C82,-119.67 82,-75.2108 82,-46.3932"/>
<polygon fill="black" stroke="black" points="85.5001,-46.1892 82,-36.1893 78.5001,-46.1893 85.5001,-46.1892"/>
</g>
<!-- b&#39; -->
<g id="node4" class="node"><title>b&#39;</title>
<ellipse fill="none" stroke="black" cx="137" cy="-90" rx="27" ry="18"/>
<text text-anchor="middle" x="137" y="-85.8" font-family="Times,serif" font-size="14.00">b&#39;</text>
</g>
<!-- b&#45;&gt;b&#39; -->
<g id="edge3" class="edge"><title>b&#45;&gt;b&#39;</title>
<path fill="none" stroke="black" stroke-dasharray="1,5" d="M93.9342,-145.811C101.214,-136.546 110.663,-124.52 118.854,-114.094"/>
<polygon fill="black" stroke="black" points="121.663,-116.185 125.089,-106.159 116.159,-111.86 121.663,-116.185"/>
</g>
<!-- b&#39;&#39;&#45;&gt;a -->
<g id="edge2" class="edge"><title>b&#39;&#39;&#45;&gt;a</title>
<path fill="none" stroke="black" d="M38.9342,-73.811C46.2136,-64.5464 55.6626,-52.5203 63.8544,-42.0944"/>
<polygon fill="black" stroke="black" points="66.663,-44.1849 70.0891,-34.1593 61.1587,-39.8601 66.663,-44.1849"/>
</g>
<!-- b&#39;&#45;&gt;a -->
<g id="edge4" class="edge"><title>b&#39;&#45;&gt;a</title>
<path fill="none" stroke="black" d="M125.066,-73.811C117.786,-64.5464 108.337,-52.5203 100.146,-42.0944"/>
<polygon fill="black" stroke="black" points="102.841,-39.8601 93.9109,-34.1593 97.337,-44.1849 102.841,-39.8601"/>
</g>
</g>
</svg>
