<?xml version="1.0" encoding="UTF-8" standalone="no"?>
<!DOCTYPE svg PUBLIC "-//W3C//DTD SVG 1.1//EN"
 "http://www.w3.org/Graphics/SVG/1.1/DTD/svg11.dtd">
<!-- Generated by graphviz version 2.40.1 (20161225.0304)
 -->
<!-- Title: G Pages: 1 -->
<svg width="242pt" height="67pt"
 viewBox="0.00 0.00 242.00 67.00" xmlns="http://www.w3.org/2000/svg" xmlns:xlink="http://www.w3.org/1999/xlink">
<g id="graph0" class="graph" transform="scale(1 1) rotate(0) translate(4 63)">
<title>G</title>
<polygon fill="#ffffff" stroke="transparent" points="-4,4 -4,-63 238,-63 238,4 -4,4"/>
<!-- b -->
<g id="node1" class="node">
<title>b</title>
<ellipse fill="#d3d3d3" stroke="#d3d3d3" cx="27" cy="-41" rx="27" ry="18"/>
<text text-anchor="middle" x="27" y="-36.8" font-family="Times,serif" font-size="14.00" fill="#000000">b</text>
</g>
<!-- b&#39;&#39; -->
<g id="node2" class="node">
<title>b&#39;&#39;</title>
<ellipse fill="none" stroke="#000000" cx="117" cy="-41" rx="27" ry="18"/>
<text text-anchor="middle" x="117" y="-36.8" font-family="Times,serif" font-size="14.00" fill="#000000">b&#39;&#39;</text>
</g>
<!-- b&#45;&gt;b&#39;&#39; -->
<g id="edge1" class="edge">
<title>b&#45;&gt;b&#39;&#39;</title>
<path fill="none" stroke="#000000" stroke-dasharray="1,5" d="M54.003,-41C62.0277,-41 70.9665,-41 79.5309,-41"/>
<polygon fill="#000000" stroke="#000000" points="79.7051,-44.5001 89.705,-41 79.705,-37.5001 79.7051,-44.5001"/>
</g>
<!-- a -->
<g id="node3" class="node">
<title>a</title>
<ellipse fill="none" stroke="#000000" cx="207" cy="-18" rx="27" ry="18"/>
<text text-anchor="middle" x="207" y="-13.8" font-family="Times,serif" font-size="14.00" fill="#000000">a</text>
</g>
<!-- b&#45;&gt;a -->
<g id="edge3" class="edge">
<title>b&#45;&gt;a</title>
<path fill="none" stroke="#000000" d="M47.8758,-29.5158C59.8215,-23.6025 75.3126,-17.0147 90,-14 116.5882,-8.5426 147.2761,-9.8676 170.5506,-12.3839"/>
<polygon fill="#000000" stroke="#000000" points="170.3345,-15.8831 180.6813,-13.6038 171.1715,-8.9333 170.3345,-15.8831"/>
</g>
<!-- b&#39;&#39;&#45;&gt;a -->
<g id="edge2" class="edge">
<title>b&#39;&#39;&#45;&gt;a</title>
<path fill="none" stroke="#000000" d="M142.5497,-34.4706C151.6523,-32.1444 162.0697,-29.4822 171.8371,-26.9861"/>
<polygon fill="#000000" stroke="#000000" points="172.876,-30.3332 181.698,-24.4661 171.1427,-23.5511 172.876,-30.3332"/>
</g>
</g>
</svg>
