<?xml version="1.0" encoding="UTF-8" standalone="no"?>
<!DOCTYPE svg PUBLIC "-//W3C//DTD SVG 1.1//EN"
 "http://www.w3.org/Graphics/SVG/1.1/DTD/svg11.dtd">
<!-- Generated by graphviz version 2.40.1 (20161225.0304)
 -->
<!-- Title: G Pages: 1 -->
<svg width="332pt" height="90pt"
 viewBox="0.00 0.00 332.00 90.00" xmlns="http://www.w3.org/2000/svg" xmlns:xlink="http://www.w3.org/1999/xlink">
<g id="graph0" class="graph" transform="scale(1 1) rotate(0) translate(4 86)">
<title>G</title>
<polygon fill="#ffffff" stroke="transparent" points="-4,4 -4,-86 328,-86 328,4 -4,4"/>
<!-- b -->
<g id="node1" class="node">
<title>b</title>
<ellipse fill="#d3d3d3" stroke="#d3d3d3" cx="27" cy="-64" rx="27" ry="18"/>
<text text-anchor="middle" x="27" y="-59.8" font-family="Times,serif" font-size="14.00" fill="#000000">b</text>
</g>
<!-- b&#39; -->
<g id="node2" class="node">
<title>b&#39;</title>
<ellipse fill="#d3d3d3" stroke="#d3d3d3" cx="117" cy="-64" rx="27" ry="18"/>
<text text-anchor="middle" x="117" y="-59.8" font-family="Times,serif" font-size="14.00" fill="#000000">b&#39;</text>
</g>
<!-- b&#45;&gt;b&#39; -->
<g id="edge1" class="edge">
<title>b&#45;&gt;b&#39;</title>
<path fill="none" stroke="#000000" stroke-dasharray="1,5" d="M54.003,-64C62.0277,-64 70.9665,-64 79.5309,-64"/>
<polygon fill="#000000" stroke="#000000" points="79.7051,-67.5001 89.705,-64 79.705,-60.5001 79.7051,-67.5001"/>
</g>
<!-- a -->
<g id="node4" class="node">
<title>a</title>
<ellipse fill="none" stroke="#000000" cx="297" cy="-18" rx="27" ry="18"/>
<text text-anchor="middle" x="297" y="-13.8" font-family="Times,serif" font-size="14.00" fill="#000000">a</text>
</g>
<!-- b&#45;&gt;a -->
<g id="edge4" class="edge">
<title>b&#45;&gt;a</title>
<path fill="none" stroke="#000000" d="M48.6998,-53.2375C60.6395,-47.692 75.8623,-41.2253 90,-37 147.5362,-19.8044 217.7319,-16.9355 259.8213,-17.0338"/>
<polygon fill="#000000" stroke="#000000" points="259.8634,-20.5342 269.8916,-17.1158 259.9205,-13.5344 259.8634,-20.5342"/>
</g>
<!-- b&#39;&#39; -->
<g id="node3" class="node">
<title>b&#39;&#39;</title>
<ellipse fill="none" stroke="#000000" cx="207" cy="-64" rx="27" ry="18"/>
<text text-anchor="middle" x="207" y="-59.8" font-family="Times,serif" font-size="14.00" fill="#000000">b&#39;&#39;</text>
</g>
<!-- b&#39;&#45;&gt;b&#39;&#39; -->
<g id="edge2" class="edge">
<title>b&#39;&#45;&gt;b&#39;&#39;</title>
<path fill="none" stroke="#000000" stroke-dasharray="1,5" d="M144.003,-64C152.0277,-64 160.9665,-64 169.5309,-64"/>
<polygon fill="#000000" stroke="#000000" points="169.7051,-67.5001 179.705,-64 169.705,-60.5001 169.7051,-67.5001"/>
</g>
<!-- b&#39;&#45;&gt;a -->
<g id="edge3" class="edge">
<title>b&#39;&#45;&gt;a</title>
<path fill="none" stroke="#000000" d="M138.6749,-53.1531C150.6074,-47.5829 165.8311,-41.1195 180,-37 206.218,-29.3774 236.6873,-24.5524 259.9587,-21.6727"/>
<polygon fill="#000000" stroke="#000000" points="260.5789,-25.124 270.1033,-20.4834 259.7638,-18.1716 260.5789,-25.124"/>
</g>
<!-- b&#39;&#39;&#45;&gt;a -->
<g id="edge5" class="edge">
<title>b&#39;&#39;&#45;&gt;a</title>
<path fill="none" stroke="#000000" d="M228.7865,-52.8647C240.0625,-47.1014 254.0163,-39.9694 266.3599,-33.6605"/>
<polygon fill="#000000" stroke="#000000" points="268.1027,-36.7005 275.4141,-29.0328 264.9169,-30.4674 268.1027,-36.7005"/>
</g>
</g>
</svg>
