<?xml version="1.0" encoding="UTF-8" standalone="no"?>
<!DOCTYPE svg PUBLIC "-//W3C//DTD SVG 1.1//EN"
 "http://www.w3.org/Graphics/SVG/1.1/DTD/svg11.dtd">
<!-- Generated by graphviz version 2.40.1 (20161225.0304)
 -->
<!-- Title: G Pages: 1 -->
<svg width="157pt" height="476pt"
 viewBox="0.00 0.00 157.04 476.00" xmlns="http://www.w3.org/2000/svg" xmlns:xlink="http://www.w3.org/1999/xlink">
<g id="graph0" class="graph" transform="scale(1 1) rotate(0) translate(4 472)">
<title>G</title>
<polygon fill="#ffffff" stroke="transparent" points="-4,4 -4,-472 153.0381,-472 153.0381,4 -4,4"/>
<!-- d -->
<g id="node1" class="node">
<title>d</title>
<ellipse fill="none" stroke="#000000" cx="100" cy="-90" rx="27" ry="18"/>
<text text-anchor="middle" x="100" y="-85.8" font-family="Times,serif" font-size="14.00" fill="#000000">d</text>
</g>
<!-- a -->
<g id="node2" class="node">
<title>a</title>
<ellipse fill="none" stroke="#000000" cx="63" cy="-18" rx="27" ry="18"/>
<text text-anchor="middle" x="63" y="-13.8" font-family="Times,serif" font-size="14.00" fill="#000000">a</text>
</g>
<!-- d&#45;&gt;a -->
<g id="edge1" class="edge">
<title>d&#45;&gt;a</title>
<path fill="none" stroke="#000000" d="M91.2315,-72.937C86.8721,-64.4537 81.5047,-54.0092 76.6247,-44.513"/>
<polygon fill="#000000" stroke="#000000" points="79.6463,-42.7352 71.9626,-35.4407 73.4203,-45.9348 79.6463,-42.7352"/>
</g>
<!-- b -->
<g id="node3" class="node">
<title>b</title>
<ellipse fill="none" stroke="#000000" cx="27" cy="-90" rx="27" ry="18"/>
<text text-anchor="middle" x="27" y="-85.8" font-family="Times,serif" font-size="14.00" fill="#000000">b</text>
</g>
<!-- b&#45;&gt;a -->
<g id="edge2" class="edge">
<title>b&#45;&gt;a</title>
<path fill="none" stroke="#000000" d="M35.7146,-72.5708C39.9597,-64.0807 45.1536,-53.6929 49.8663,-44.2674"/>
<polygon fill="#000000" stroke="#000000" points="53.024,-45.7782 54.3657,-35.2687 46.763,-42.6477 53.024,-45.7782"/>
</g>
<!-- c -->
<g id="node4" class="node">
<title>c</title>
<ellipse fill="none" stroke="#000000" cx="27" cy="-162" rx="27" ry="18"/>
<text text-anchor="middle" x="27" y="-157.8" font-family="Times,serif" font-size="14.00" fill="#000000">c</text>
</g>
<!-- c&#45;&gt;b -->
<g id="edge3" class="edge">
<title>c&#45;&gt;b</title>
<path fill="none" stroke="#000000" d="M27,-143.8314C27,-136.131 27,-126.9743 27,-118.4166"/>
<polygon fill="#000000" stroke="#000000" points="30.5001,-118.4132 27,-108.4133 23.5001,-118.4133 30.5001,-118.4132"/>
</g>
<!-- newb -->
<g id="node5" class="node">
<title>newb</title>
<ellipse fill="none" stroke="#000000" cx="101" cy="-162" rx="29.0257" ry="18"/>
<text text-anchor="middle" x="101" y="-157.8" font-family="Times,serif" font-size="14.00" fill="#000000">newb</text>
</g>
<!-- newb&#45;&gt;d -->
<g id="edge4" class="edge">
<title>newb&#45;&gt;d</title>
<path fill="none" stroke="#000000" d="M100.7477,-143.8314C100.6407,-136.131 100.5135,-126.9743 100.3947,-118.4166"/>
<polygon fill="#000000" stroke="#000000" points="103.8944,-118.3637 100.2557,-108.4133 96.8951,-118.4609 103.8944,-118.3637"/>
</g>
<!-- l -->
<g id="node6" class="node">
<title>l</title>
<ellipse fill="none" stroke="#000000" cx="101" cy="-378" rx="27" ry="18"/>
<text text-anchor="middle" x="101" y="-373.8" font-family="Times,serif" font-size="14.00" fill="#000000">l</text>
</g>
<!-- k -->
<g id="node7" class="node">
<title>k</title>
<ellipse fill="none" stroke="#000000" cx="101" cy="-306" rx="27" ry="18"/>
<text text-anchor="middle" x="101" y="-301.8" font-family="Times,serif" font-size="14.00" fill="#000000">k</text>
</g>
<!-- l&#45;&gt;k -->
<g id="edge5" class="edge">
<title>l&#45;&gt;k</title>
<path fill="none" stroke="#000000" d="M101,-359.8314C101,-352.131 101,-342.9743 101,-334.4166"/>
<polygon fill="#000000" stroke="#000000" points="104.5001,-334.4132 101,-324.4133 97.5001,-334.4133 104.5001,-334.4132"/>
</g>
<!-- ... -->
<g id="node8" class="node">
<title>...</title>
<ellipse fill="none" stroke="#000000" cx="101" cy="-234" rx="27" ry="18"/>
<text text-anchor="middle" x="101" y="-229.8" font-family="Times,serif" font-size="14.00" fill="#000000">...</text>
</g>
<!-- k&#45;&gt;... -->
<g id="edge6" class="edge">
<title>k&#45;&gt;...</title>
<path fill="none" stroke="#000000" d="M101,-287.8314C101,-280.131 101,-270.9743 101,-262.4166"/>
<polygon fill="#000000" stroke="#000000" points="104.5001,-262.4132 101,-252.4133 97.5001,-262.4133 104.5001,-262.4132"/>
</g>
<!-- ...&#45;&gt;newb -->
<g id="edge7" class="edge">
<title>...&#45;&gt;newb</title>
<path fill="none" stroke="#000000" d="M101,-215.8314C101,-208.131 101,-198.9743 101,-190.4166"/>
<polygon fill="#000000" stroke="#000000" points="104.5001,-190.4132 101,-180.4133 97.5001,-190.4133 104.5001,-190.4132"/>
</g>
<!-- remote/master -->
<g id="node9" class="node">
<title>remote/master</title>
<text text-anchor="middle" x="101" y="-445.8" font-family="Times,serif" font-size="14.00" fill="#000000">remote/master</text>
</g>
<!-- remote/master&#45;&gt;l -->
<g id="edge8" class="edge">
<title>remote/master&#45;&gt;l</title>
<path fill="none" stroke="#ff0000" d="M101,-431.8314C101,-424.131 101,-414.9743 101,-406.4166"/>
<polygon fill="#ff0000" stroke="#ff0000" points="104.5001,-406.4132 101,-396.4133 97.5001,-406.4133 104.5001,-406.4132"/>
</g>
</g>
</svg>
