<?xml version="1.0" encoding="UTF-8" standalone="no"?>
<!DOCTYPE svg PUBLIC "-//W3C//DTD SVG 1.1//EN"
 "http://www.w3.org/Graphics/SVG/1.1/DTD/svg11.dtd">
<!-- Generated by graphviz version 2.38.0 (20140413.2041)
 -->
<!-- Title: G Pages: 1 -->
<svg width="176pt" height="188pt"
 viewBox="0.00 0.00 176.04 188.00" xmlns="http://www.w3.org/2000/svg" xmlns:xlink="http://www.w3.org/1999/xlink">
<g id="graph0" class="graph" transform="scale(1 1) rotate(0) translate(4 184)">
<title>G</title>
<polygon fill="white" stroke="none" points="-4,4 -4,-184 172.038,-184 172.038,4 -4,4"/>
<!-- d -->
<g id="node1" class="node"><title>d</title>
<ellipse fill="none" stroke="black" cx="114" cy="-90" rx="27" ry="18"/>
<text text-anchor="middle" x="114" y="-85.8" font-family="Times,serif" font-size="14.00">d</text>
</g>
<!-- a -->
<g id="node2" class="node"><title>a</title>
<ellipse fill="none" stroke="black" cx="73" cy="-18" rx="27" ry="18"/>
<text text-anchor="middle" x="73" y="-13.8" font-family="Times,serif" font-size="14.00">a</text>
</g>
<!-- d&#45;&gt;a -->
<g id="edge1" class="edge"><title>d&#45;&gt;a</title>
<path fill="none" stroke="black" d="M104.491,-72.7646C99.4712,-64.1948 93.2036,-53.494 87.5845,-43.9004"/>
<polygon fill="black" stroke="black" points="90.5319,-42.0072 82.4577,-35.1473 84.4917,-45.5451 90.5319,-42.0072"/>
</g>
<!-- b -->
<g id="node3" class="node"><title>b</title>
<ellipse fill="none" stroke="black" cx="32" cy="-90" rx="27" ry="18"/>
<text text-anchor="middle" x="32" y="-85.8" font-family="Times,serif" font-size="14.00">b</text>
</g>
<!-- b&#45;&gt;a -->
<g id="edge2" class="edge"><title>b&#45;&gt;a</title>
<path fill="none" stroke="black" d="M41.5093,-72.7646C46.5288,-64.1948 52.7964,-53.494 58.4155,-43.9004"/>
<polygon fill="black" stroke="black" points="61.5083,-45.5451 63.5423,-35.1473 55.4681,-42.0072 61.5083,-45.5451"/>
</g>
<!-- c -->
<g id="node4" class="node"><title>c</title>
<ellipse fill="none" stroke="black" cx="27" cy="-162" rx="27" ry="18"/>
<text text-anchor="middle" x="27" y="-157.8" font-family="Times,serif" font-size="14.00">c</text>
</g>
<!-- c&#45;&gt;b -->
<g id="edge3" class="edge"><title>c&#45;&gt;b</title>
<path fill="none" stroke="black" d="M28.236,-143.697C28.7869,-135.983 29.4491,-126.712 30.0634,-118.112"/>
<polygon fill="black" stroke="black" points="33.5568,-118.328 30.7783,-108.104 26.5746,-117.83 33.5568,-118.328"/>
</g>
<!-- remote/master -->
<g id="node5" class="node"><title>remote/master</title>
<text text-anchor="middle" x="120" y="-157.8" font-family="Times,serif" font-size="14.00">remote/master</text>
</g>
<!-- remote/master&#45;&gt;d -->
<g id="edge4" class="edge"><title>remote/master&#45;&gt;d</title>
<path fill="none" stroke="red" d="M118.517,-143.697C117.856,-135.983 117.061,-126.712 116.324,-118.112"/>
<polygon fill="red" stroke="red" points="119.807,-117.769 115.466,-108.104 112.833,-118.367 119.807,-117.769"/>
</g>
</g>
</svg>
