<?xml version="1.0" encoding="UTF-8" standalone="no"?>
<!DOCTYPE svg PUBLIC "-//W3C//DTD SVG 1.1//EN"
 "http://www.w3.org/Graphics/SVG/1.1/DTD/svg11.dtd">
<!-- Generated by graphviz version 2.40.1 (20161225.0304)
 -->
<!-- Title: G Pages: 1 -->
<svg width="176pt" height="188pt"
 viewBox="0.00 0.00 176.04 188.00" xmlns="http://www.w3.org/2000/svg" xmlns:xlink="http://www.w3.org/1999/xlink">
<g id="graph0" class="graph" transform="scale(1 1) rotate(0) translate(4 184)">
<title>G</title>
<polygon fill="#ffffff" stroke="transparent" points="-4,4 -4,-184 172.0381,-184 172.0381,4 -4,4"/>
<!-- d -->
<g id="node1" class="node">
<title>d</title>
<ellipse fill="none" stroke="#000000" cx="114" cy="-90" rx="27" ry="18"/>
<text text-anchor="middle" x="114" y="-85.8" font-family="Times,serif" font-size="14.00" fill="#000000">d</text>
</g>
<!-- a -->
<g id="node2" class="node">
<title>a</title>
<ellipse fill="none" stroke="#000000" cx="73" cy="-18" rx="27" ry="18"/>
<text text-anchor="middle" x="73" y="-13.8" font-family="Times,serif" font-size="14.00" fill="#000000">a</text>
</g>
<!-- d&#45;&gt;a -->
<g id="edge1" class="edge">
<title>d&#45;&gt;a</title>
<path fill="none" stroke="#000000" d="M104.2836,-72.937C99.3307,-64.2393 93.2039,-53.4799 87.6887,-43.7948"/>
<polygon fill="#000000" stroke="#000000" points="90.6366,-41.8984 82.6467,-34.9405 84.5537,-45.3623 90.6366,-41.8984"/>
</g>
<!-- b -->
<g id="node3" class="node">
<title>b</title>
<ellipse fill="none" stroke="#000000" cx="32" cy="-90" rx="27" ry="18"/>
<text text-anchor="middle" x="32" y="-85.8" font-family="Times,serif" font-size="14.00" fill="#000000">b</text>
</g>
<!-- b&#45;&gt;a -->
<g id="edge2" class="edge">
<title>b&#45;&gt;a</title>
<path fill="none" stroke="#000000" d="M41.7164,-72.937C46.6693,-64.2393 52.7961,-53.4799 58.3113,-43.7948"/>
<polygon fill="#000000" stroke="#000000" points="61.4463,-45.3623 63.3533,-34.9405 55.3634,-41.8984 61.4463,-45.3623"/>
</g>
<!-- c -->
<g id="node4" class="node">
<title>c</title>
<ellipse fill="none" stroke="#000000" cx="27" cy="-162" rx="27" ry="18"/>
<text text-anchor="middle" x="27" y="-157.8" font-family="Times,serif" font-size="14.00" fill="#000000">c</text>
</g>
<!-- c&#45;&gt;b -->
<g id="edge3" class="edge">
<title>c&#45;&gt;b</title>
<path fill="none" stroke="#000000" d="M28.2617,-143.8314C28.7965,-136.131 29.4323,-126.9743 30.0266,-118.4166"/>
<polygon fill="#000000" stroke="#000000" points="33.52,-118.6317 30.7213,-108.4133 26.5368,-118.1467 33.52,-118.6317"/>
</g>
<!-- remote/master -->
<g id="node5" class="node">
<title>remote/master</title>
<text text-anchor="middle" x="120" y="-157.8" font-family="Times,serif" font-size="14.00" fill="#000000">remote/master</text>
</g>
<!-- remote/master&#45;&gt;d -->
<g id="edge4" class="edge">
<title>remote/master&#45;&gt;d</title>
<path fill="none" stroke="#ff0000" d="M118.4859,-143.8314C117.8442,-136.131 117.0812,-126.9743 116.3681,-118.4166"/>
<polygon fill="#ff0000" stroke="#ff0000" points="119.8529,-118.088 115.5344,-108.4133 112.8771,-118.6694 119.8529,-118.088"/>
</g>
</g>
</svg>
