<?xml version="1.0" encoding="UTF-8" standalone="no"?>
<!DOCTYPE svg PUBLIC "-//W3C//DTD SVG 1.1//EN"
 "http://www.w3.org/Graphics/SVG/1.1/DTD/svg11.dtd">
<!-- Generated by graphviz version 2.40.1 (20161225.0304)
 -->
<!-- Title: G Pages: 1 -->
<svg width="155pt" height="476pt"
 viewBox="0.00 0.00 155.04 476.00" xmlns="http://www.w3.org/2000/svg" xmlns:xlink="http://www.w3.org/1999/xlink">
<g id="graph0" class="graph" transform="scale(1 1) rotate(0) translate(4 472)">
<title>G</title>
<polygon fill="#ffffff" stroke="transparent" points="-4,4 -4,-472 151.0381,-472 151.0381,4 -4,4"/>
<!-- d -->
<g id="node1" class="node">
<title>d</title>
<ellipse fill="none" stroke="#000000" cx="64.0381" cy="-90" rx="27" ry="18"/>
<text text-anchor="middle" x="64.0381" y="-85.8" font-family="Times,serif" font-size="14.00" fill="#000000">d</text>
</g>
<!-- a -->
<g id="node2" class="node">
<title>a</title>
<ellipse fill="none" stroke="#000000" cx="91.0381" cy="-18" rx="27" ry="18"/>
<text text-anchor="middle" x="91.0381" y="-13.8" font-family="Times,serif" font-size="14.00" fill="#000000">a</text>
</g>
<!-- d&#45;&gt;a -->
<g id="edge1" class="edge">
<title>d&#45;&gt;a</title>
<path fill="none" stroke="#000000" d="M70.7122,-72.2022C73.7857,-64.0064 77.4997,-54.1024 80.9076,-45.0145"/>
<polygon fill="#000000" stroke="#000000" points="84.2066,-46.1853 84.4407,-35.593 77.6522,-43.7274 84.2066,-46.1853"/>
</g>
<!-- b -->
<g id="node3" class="node">
<title>b</title>
<ellipse fill="#d3d3d3" stroke="#d3d3d3" cx="120.0381" cy="-234" rx="27" ry="18"/>
<text text-anchor="middle" x="120.0381" y="-229.8" font-family="Times,serif" font-size="14.00" fill="#000000">b</text>
</g>
<!-- b&#45;&gt;a -->
<g id="edge2" class="edge">
<title>b&#45;&gt;a</title>
<path fill="none" stroke="#000000" d="M118.0663,-215.9873C114.7323,-186.046 107.6017,-124.1642 100.0381,-72 98.8106,-63.5346 97.3339,-54.3473 95.9348,-45.9919"/>
<polygon fill="#000000" stroke="#000000" points="99.3574,-45.2411 94.2288,-35.9703 92.4567,-46.4159 99.3574,-45.2411"/>
</g>
<!-- newb -->
<g id="node5" class="node">
<title>newb</title>
<ellipse fill="none" stroke="#000000" cx="63.0381" cy="-162" rx="29.0257" ry="18"/>
<text text-anchor="middle" x="63.0381" y="-157.8" font-family="Times,serif" font-size="14.00" fill="#000000">newb</text>
</g>
<!-- b&#45;&gt;newb -->
<g id="edge9" class="edge">
<title>b&#45;&gt;newb</title>
<path fill="none" stroke="#000000" stroke-dasharray="1,5" d="M107.3879,-218.0209C99.9863,-208.6714 90.4934,-196.6804 82.1907,-186.1928"/>
<polygon fill="#000000" stroke="#000000" points="84.8012,-183.8514 75.85,-178.1834 79.3129,-188.1964 84.8012,-183.8514"/>
</g>
<!-- c -->
<g id="node4" class="node">
<title>c</title>
<ellipse fill="none" stroke="#000000" cx="120.0381" cy="-306" rx="27" ry="18"/>
<text text-anchor="middle" x="120.0381" y="-301.8" font-family="Times,serif" font-size="14.00" fill="#000000">c</text>
</g>
<!-- c&#45;&gt;b -->
<g id="edge3" class="edge">
<title>c&#45;&gt;b</title>
<path fill="none" stroke="#000000" d="M120.0381,-287.8314C120.0381,-280.131 120.0381,-270.9743 120.0381,-262.4166"/>
<polygon fill="#000000" stroke="#000000" points="123.5382,-262.4132 120.0381,-252.4133 116.5382,-262.4133 123.5382,-262.4132"/>
</g>
<!-- newb&#45;&gt;d -->
<g id="edge4" class="edge">
<title>newb&#45;&gt;d</title>
<path fill="none" stroke="#000000" d="M63.2904,-143.8314C63.3974,-136.131 63.5246,-126.9743 63.6434,-118.4166"/>
<polygon fill="#000000" stroke="#000000" points="67.143,-118.4609 63.7823,-108.4133 60.1437,-118.3637 67.143,-118.4609"/>
</g>
<!-- l -->
<g id="node6" class="node">
<title>l</title>
<ellipse fill="none" stroke="#000000" cx="48.0381" cy="-378" rx="27" ry="18"/>
<text text-anchor="middle" x="48.0381" y="-373.8" font-family="Times,serif" font-size="14.00" fill="#000000">l</text>
</g>
<!-- k -->
<g id="node7" class="node">
<title>k</title>
<ellipse fill="none" stroke="#000000" cx="48.0381" cy="-306" rx="27" ry="18"/>
<text text-anchor="middle" x="48.0381" y="-301.8" font-family="Times,serif" font-size="14.00" fill="#000000">k</text>
</g>
<!-- l&#45;&gt;k -->
<g id="edge5" class="edge">
<title>l&#45;&gt;k</title>
<path fill="none" stroke="#000000" d="M48.0381,-359.8314C48.0381,-352.131 48.0381,-342.9743 48.0381,-334.4166"/>
<polygon fill="#000000" stroke="#000000" points="51.5382,-334.4132 48.0381,-324.4133 44.5382,-334.4133 51.5382,-334.4132"/>
</g>
<!-- ... -->
<g id="node8" class="node">
<title>...</title>
<ellipse fill="none" stroke="#000000" cx="48.0381" cy="-234" rx="27" ry="18"/>
<text text-anchor="middle" x="48.0381" y="-229.8" font-family="Times,serif" font-size="14.00" fill="#000000">...</text>
</g>
<!-- k&#45;&gt;... -->
<g id="edge6" class="edge">
<title>k&#45;&gt;...</title>
<path fill="none" stroke="#000000" d="M48.0381,-287.8314C48.0381,-280.131 48.0381,-270.9743 48.0381,-262.4166"/>
<polygon fill="#000000" stroke="#000000" points="51.5382,-262.4132 48.0381,-252.4133 44.5382,-262.4133 51.5382,-262.4132"/>
</g>
<!-- ...&#45;&gt;newb -->
<g id="edge7" class="edge">
<title>...&#45;&gt;newb</title>
<path fill="none" stroke="#000000" d="M51.8232,-215.8314C53.4701,-207.9266 55.4366,-198.4872 57.2596,-189.7365"/>
<polygon fill="#000000" stroke="#000000" points="60.6929,-190.4171 59.3061,-179.9134 53.8401,-188.9894 60.6929,-190.4171"/>
</g>
<!-- remote/master -->
<g id="node9" class="node">
<title>remote/master</title>
<text text-anchor="middle" x="48.0381" y="-445.8" font-family="Times,serif" font-size="14.00" fill="#000000">remote/master</text>
</g>
<!-- remote/master&#45;&gt;l -->
<g id="edge8" class="edge">
<title>remote/master&#45;&gt;l</title>
<path fill="none" stroke="#ff0000" d="M48.0381,-431.8314C48.0381,-424.131 48.0381,-414.9743 48.0381,-406.4166"/>
<polygon fill="#ff0000" stroke="#ff0000" points="51.5382,-406.4132 48.0381,-396.4133 44.5382,-406.4133 51.5382,-406.4132"/>
</g>
</g>
</svg>
