<?xml version="1.0" encoding="UTF-8" standalone="no"?>
<!DOCTYPE svg PUBLIC "-//W3C//DTD SVG 1.1//EN"
 "http://www.w3.org/Graphics/SVG/1.1/DTD/svg11.dtd">
<!-- Generated by graphviz version 2.38.0 (20140413.2041)
 -->
<!-- Title: G Pages: 1 -->
<svg width="117pt" height="404pt"
 viewBox="0.00 0.00 117.00 404.00" xmlns="http://www.w3.org/2000/svg" xmlns:xlink="http://www.w3.org/1999/xlink">
<g id="graph0" class="graph" transform="scale(1 1) rotate(0) translate(4 400)">
<title>G</title>
<polygon fill="white" stroke="none" points="-4,4 -4,-400 113,-400 113,4 -4,4"/>
<!-- d -->
<g id="node1" class="node"><title>d</title>
<ellipse fill="none" stroke="black" cx="27" cy="-378" rx="27" ry="18"/>
<text text-anchor="middle" x="27" y="-373.8" font-family="Times,serif" font-size="14.00">d</text>
</g>
<!-- c -->
<g id="node2" class="node"><title>c</title>
<ellipse fill="lightgray" stroke="lightgray" cx="27" cy="-306" rx="27" ry="18"/>
<text text-anchor="middle" x="27" y="-301.8" font-family="Times,serif" font-size="14.00">c</text>
</g>
<!-- d&#45;&gt;c -->
<g id="edge1" class="edge"><title>d&#45;&gt;c</title>
<path fill="none" stroke="black" d="M27,-359.697C27,-351.983 27,-342.712 27,-334.112"/>
<polygon fill="black" stroke="black" points="30.5001,-334.104 27,-324.104 23.5001,-334.104 30.5001,-334.104"/>
</g>
<!-- b -->
<g id="node3" class="node"><title>b</title>
<ellipse fill="lightgray" stroke="lightgray" cx="27" cy="-162" rx="27" ry="18"/>
<text text-anchor="middle" x="27" y="-157.8" font-family="Times,serif" font-size="14.00">b</text>
</g>
<!-- c&#45;&gt;b -->
<g id="edge2" class="edge"><title>c&#45;&gt;b</title>
<path fill="none" stroke="black" d="M27,-287.871C27,-263.67 27,-219.211 27,-190.393"/>
<polygon fill="black" stroke="black" points="30.5001,-190.189 27,-180.189 23.5001,-190.189 30.5001,-190.189"/>
</g>
<!-- c&#39; -->
<g id="node5" class="node"><title>c&#39;</title>
<ellipse fill="none" stroke="black" cx="82" cy="-234" rx="27" ry="18"/>
<text text-anchor="middle" x="82" y="-229.8" font-family="Times,serif" font-size="14.00">c&#39;</text>
</g>
<!-- c&#45;&gt;c&#39; -->
<g id="edge5" class="edge"><title>c&#45;&gt;c&#39;</title>
<path fill="none" stroke="black" stroke-dasharray="1,5" d="M38.9342,-289.811C46.2136,-280.546 55.6626,-268.52 63.8544,-258.094"/>
<polygon fill="black" stroke="black" points="66.663,-260.185 70.0891,-250.159 61.1587,-255.86 66.663,-260.185"/>
</g>
<!-- a -->
<g id="node4" class="node"><title>a</title>
<ellipse fill="none" stroke="black" cx="27" cy="-18" rx="27" ry="18"/>
<text text-anchor="middle" x="27" y="-13.8" font-family="Times,serif" font-size="14.00">a</text>
</g>
<!-- b&#45;&gt;a -->
<g id="edge3" class="edge"><title>b&#45;&gt;a</title>
<path fill="none" stroke="black" d="M23.7517,-143.888C21.9542,-133.542 19.9053,-120.063 19,-108 17.8026,-92.0449 17.8026,-87.9551 19,-72 19.6366,-63.5179 20.8384,-54.3361 22.1208,-46.0356"/>
<polygon fill="black" stroke="black" points="25.5836,-46.5472 23.7517,-36.1119 18.6763,-45.412 25.5836,-46.5472"/>
</g>
<!-- b&#39; -->
<g id="node6" class="node"><title>b&#39;</title>
<ellipse fill="none" stroke="black" cx="55" cy="-90" rx="27" ry="18"/>
<text text-anchor="middle" x="55" y="-85.8" font-family="Times,serif" font-size="14.00">b&#39;</text>
</g>
<!-- b&#45;&gt;b&#39; -->
<g id="edge6" class="edge"><title>b&#45;&gt;b&#39;</title>
<path fill="none" stroke="black" stroke-dasharray="1,5" d="M33.6356,-144.411C36.9134,-136.216 40.9442,-126.14 44.6181,-116.955"/>
<polygon fill="black" stroke="black" points="47.9477,-118.055 48.412,-107.47 41.4484,-115.455 47.9477,-118.055"/>
</g>
<!-- c&#39;&#45;&gt;b -->
<g id="edge4" class="edge"><title>c&#39;&#45;&gt;b</title>
<path fill="none" stroke="black" d="M70.0658,-217.811C62.7864,-208.546 53.3374,-196.52 45.1456,-186.094"/>
<polygon fill="black" stroke="black" points="47.8413,-183.86 38.9109,-178.159 42.337,-188.185 47.8413,-183.86"/>
</g>
<!-- b&#39;&#45;&gt;a -->
<g id="edge7" class="edge"><title>b&#39;&#45;&gt;a</title>
<path fill="none" stroke="black" d="M48.3644,-72.411C45.0866,-64.2164 41.0558,-54.1395 37.3819,-44.9548"/>
<polygon fill="black" stroke="black" points="40.5516,-43.4548 33.588,-35.4699 34.0523,-46.0546 40.5516,-43.4548"/>
</g>
</g>
</svg>
