<?xml version="1.0" encoding="UTF-8" standalone="no"?>
<!DOCTYPE svg PUBLIC "-//W3C//DTD SVG 1.1//EN"
 "http://www.w3.org/Graphics/SVG/1.1/DTD/svg11.dtd">
<!-- Generated by graphviz version 2.40.1 (20161225.0304)
 -->
<!-- Title: G Pages: 1 -->
<svg width="134pt" height="260pt"
 viewBox="0.00 0.00 134.00 260.00" xmlns="http://www.w3.org/2000/svg" xmlns:xlink="http://www.w3.org/1999/xlink">
<g id="graph0" class="graph" transform="scale(1 1) rotate(0) translate(4 256)">
<title>G</title>
<polygon fill="#ffffff" stroke="transparent" points="-4,4 -4,-256 130,-256 130,4 -4,4"/>
<!-- d -->
<g id="node1" class="node">
<title>d</title>
<ellipse fill="none" stroke="#000000" cx="27" cy="-234" rx="27" ry="18"/>
<text text-anchor="middle" x="27" y="-229.8" font-family="Times,serif" font-size="14.00" fill="#000000">d</text>
</g>
<!-- c&#39; -->
<g id="node2" class="node">
<title>c&#39;</title>
<ellipse fill="none" stroke="#000000" cx="27" cy="-162" rx="27" ry="18"/>
<text text-anchor="middle" x="27" y="-157.8" font-family="Times,serif" font-size="14.00" fill="#000000">c&#39;</text>
</g>
<!-- d&#45;&gt;c&#39; -->
<g id="edge1" class="edge">
<title>d&#45;&gt;c&#39;</title>
<path fill="none" stroke="#000000" d="M27,-215.8314C27,-208.131 27,-198.9743 27,-190.4166"/>
<polygon fill="#000000" stroke="#000000" points="30.5001,-190.4132 27,-180.4133 23.5001,-190.4133 30.5001,-190.4132"/>
</g>
<!-- b&#39; -->
<g id="node3" class="node">
<title>b&#39;</title>
<ellipse fill="none" stroke="#000000" cx="27" cy="-90" rx="27" ry="18"/>
<text text-anchor="middle" x="27" y="-85.8" font-family="Times,serif" font-size="14.00" fill="#000000">b&#39;</text>
</g>
<!-- c&#39;&#45;&gt;b&#39; -->
<g id="edge2" class="edge">
<title>c&#39;&#45;&gt;b&#39;</title>
<path fill="none" stroke="#000000" d="M27,-143.8314C27,-136.131 27,-126.9743 27,-118.4166"/>
<polygon fill="#000000" stroke="#000000" points="30.5001,-118.4132 27,-108.4133 23.5001,-118.4133 30.5001,-118.4132"/>
</g>
<!-- a -->
<g id="node4" class="node">
<title>a</title>
<ellipse fill="none" stroke="#000000" cx="54" cy="-18" rx="27" ry="18"/>
<text text-anchor="middle" x="54" y="-13.8" font-family="Times,serif" font-size="14.00" fill="#000000">a</text>
</g>
<!-- b&#39;&#45;&gt;a -->
<g id="edge3" class="edge">
<title>b&#39;&#45;&gt;a</title>
<path fill="none" stroke="#000000" d="M33.6742,-72.2022C36.7476,-64.0064 40.4616,-54.1024 43.8695,-45.0145"/>
<polygon fill="#000000" stroke="#000000" points="47.1685,-46.1853 47.4026,-35.593 40.6142,-43.7274 47.1685,-46.1853"/>
</g>
<!-- b -->
<g id="node5" class="node">
<title>b</title>
<ellipse fill="#d3d3d3" stroke="#d3d3d3" cx="99" cy="-162" rx="27" ry="18"/>
<text text-anchor="middle" x="99" y="-157.8" font-family="Times,serif" font-size="14.00" fill="#000000">b</text>
</g>
<!-- b&#45;&gt;b&#39; -->
<g id="edge7" class="edge">
<title>b&#45;&gt;b&#39;</title>
<path fill="none" stroke="#000000" stroke-dasharray="1,5" d="M83.7307,-146.7307C73.803,-136.803 60.6847,-123.6847 49.5637,-112.5637"/>
<polygon fill="#000000" stroke="#000000" points="51.7933,-109.8436 42.2473,-105.2473 46.8436,-114.7933 51.7933,-109.8436"/>
</g>
<!-- b&#45;&gt;a -->
<g id="edge4" class="edge">
<title>b&#45;&gt;a</title>
<path fill="none" stroke="#000000" d="M93.4821,-144.3428C85.7563,-119.6202 71.644,-74.4608 62.5512,-45.3639"/>
<polygon fill="#000000" stroke="#000000" points="65.8865,-44.3025 59.563,-35.8017 59.2052,-46.3904 65.8865,-44.3025"/>
</g>
<!-- c -->
<g id="node6" class="node">
<title>c</title>
<ellipse fill="#d3d3d3" stroke="#d3d3d3" cx="99" cy="-234" rx="27" ry="18"/>
<text text-anchor="middle" x="99" y="-229.8" font-family="Times,serif" font-size="14.00" fill="#000000">c</text>
</g>
<!-- c&#45;&gt;c&#39; -->
<g id="edge6" class="edge">
<title>c&#45;&gt;c&#39;</title>
<path fill="none" stroke="#000000" stroke-dasharray="1,5" d="M83.7307,-218.7307C73.803,-208.803 60.6847,-195.6847 49.5637,-184.5637"/>
<polygon fill="#000000" stroke="#000000" points="51.7933,-181.8436 42.2473,-177.2473 46.8436,-186.7933 51.7933,-181.8436"/>
</g>
<!-- c&#45;&gt;b -->
<g id="edge5" class="edge">
<title>c&#45;&gt;b</title>
<path fill="none" stroke="#000000" d="M99,-215.8314C99,-208.131 99,-198.9743 99,-190.4166"/>
<polygon fill="#000000" stroke="#000000" points="102.5001,-190.4132 99,-180.4133 95.5001,-190.4133 102.5001,-190.4132"/>
</g>
</g>
</svg>
