<?xml version="1.0" encoding="UTF-8" standalone="no"?>
<!DOCTYPE svg PUBLIC "-//W3C//DTD SVG 1.1//EN"
 "http://www.w3.org/Graphics/SVG/1.1/DTD/svg11.dtd">
<!-- Generated by graphviz version 2.40.1 (20161225.0304)
 -->
<!-- Title: G Pages: 1 -->
<svg width="117pt" height="404pt"
 viewBox="0.00 0.00 117.00 404.00" xmlns="http://www.w3.org/2000/svg" xmlns:xlink="http://www.w3.org/1999/xlink">
<g id="graph0" class="graph" transform="scale(1 1) rotate(0) translate(4 400)">
<title>G</title>
<polygon fill="#ffffff" stroke="transparent" points="-4,4 -4,-400 113,-400 113,4 -4,4"/>
<!-- d -->
<g id="node1" class="node">
<title>d</title>
<ellipse fill="none" stroke="#000000" cx="27" cy="-378" rx="27" ry="18"/>
<text text-anchor="middle" x="27" y="-373.8" font-family="Times,serif" font-size="14.00" fill="#000000">d</text>
</g>
<!-- c -->
<g id="node2" class="node">
<title>c</title>
<ellipse fill="#d3d3d3" stroke="#d3d3d3" cx="27" cy="-306" rx="27" ry="18"/>
<text text-anchor="middle" x="27" y="-301.8" font-family="Times,serif" font-size="14.00" fill="#000000">c</text>
</g>
<!-- d&#45;&gt;c -->
<g id="edge1" class="edge">
<title>d&#45;&gt;c</title>
<path fill="none" stroke="#000000" d="M27,-359.8314C27,-352.131 27,-342.9743 27,-334.4166"/>
<polygon fill="#000000" stroke="#000000" points="30.5001,-334.4132 27,-324.4133 23.5001,-334.4133 30.5001,-334.4132"/>
</g>
<!-- b -->
<g id="node3" class="node">
<title>b</title>
<ellipse fill="#d3d3d3" stroke="#d3d3d3" cx="27" cy="-162" rx="27" ry="18"/>
<text text-anchor="middle" x="27" y="-157.8" font-family="Times,serif" font-size="14.00" fill="#000000">b</text>
</g>
<!-- c&#45;&gt;b -->
<g id="edge2" class="edge">
<title>c&#45;&gt;b</title>
<path fill="none" stroke="#000000" d="M27,-287.7623C27,-263.201 27,-219.2474 27,-190.3541"/>
<polygon fill="#000000" stroke="#000000" points="30.5001,-190.0896 27,-180.0896 23.5001,-190.0897 30.5001,-190.0896"/>
</g>
<!-- c&#39; -->
<g id="node5" class="node">
<title>c&#39;</title>
<ellipse fill="none" stroke="#000000" cx="82" cy="-234" rx="27" ry="18"/>
<text text-anchor="middle" x="82" y="-229.8" font-family="Times,serif" font-size="14.00" fill="#000000">c&#39;</text>
</g>
<!-- c&#45;&gt;c&#39; -->
<g id="edge5" class="edge">
<title>c&#45;&gt;c&#39;</title>
<path fill="none" stroke="#000000" stroke-dasharray="1,5" d="M39.4804,-289.6621C46.5124,-280.4564 55.4347,-268.7764 63.2883,-258.4953"/>
<polygon fill="#000000" stroke="#000000" points="66.28,-260.3446 69.569,-250.2733 60.7172,-256.0953 66.28,-260.3446"/>
</g>
<!-- a -->
<g id="node4" class="node">
<title>a</title>
<ellipse fill="none" stroke="#000000" cx="27" cy="-18" rx="27" ry="18"/>
<text text-anchor="middle" x="27" y="-13.8" font-family="Times,serif" font-size="14.00" fill="#000000">a</text>
</g>
<!-- b&#45;&gt;a -->
<g id="edge3" class="edge">
<title>b&#45;&gt;a</title>
<path fill="none" stroke="#000000" d="M23.6685,-144.0736C21.8913,-133.5982 19.8913,-120.0982 19,-108 17.8244,-92.0432 17.8244,-87.9568 19,-72 19.6267,-63.4935 20.8015,-54.2939 22.0616,-45.9399"/>
<polygon fill="#000000" stroke="#000000" points="25.5398,-46.3546 23.6685,-35.9264 18.6282,-45.2455 25.5398,-46.3546"/>
</g>
<!-- b&#39; -->
<g id="node6" class="node">
<title>b&#39;</title>
<ellipse fill="none" stroke="#000000" cx="55" cy="-90" rx="27" ry="18"/>
<text text-anchor="middle" x="55" y="-85.8" font-family="Times,serif" font-size="14.00" fill="#000000">b&#39;</text>
</g>
<!-- b&#45;&gt;b&#39; -->
<g id="edge6" class="edge">
<title>b&#45;&gt;b&#39;</title>
<path fill="none" stroke="#000000" stroke-dasharray="1,5" d="M33.778,-144.5708C36.9872,-136.3187 40.8935,-126.2738 44.4758,-117.0623"/>
<polygon fill="#000000" stroke="#000000" points="47.8248,-118.1069 48.1874,-107.5182 41.3008,-115.5697 47.8248,-118.1069"/>
</g>
<!-- c&#39;&#45;&gt;b -->
<g id="edge4" class="edge">
<title>c&#39;&#45;&gt;b</title>
<path fill="none" stroke="#000000" d="M69.5196,-217.6621C62.4876,-208.4564 53.5653,-196.7764 45.7117,-186.4953"/>
<polygon fill="#000000" stroke="#000000" points="48.2828,-184.0953 39.431,-178.2733 42.72,-188.3446 48.2828,-184.0953"/>
</g>
<!-- b&#39;&#45;&gt;a -->
<g id="edge7" class="edge">
<title>b&#39;&#45;&gt;a</title>
<path fill="none" stroke="#000000" d="M48.222,-72.5708C45.0128,-64.3187 41.1065,-54.2738 37.5242,-45.0623"/>
<polygon fill="#000000" stroke="#000000" points="40.6992,-43.5697 33.8126,-35.5182 34.1752,-46.1069 40.6992,-43.5697"/>
</g>
</g>
</svg>
