<?xml version="1.0" encoding="UTF-8" standalone="no"?>
<!DOCTYPE svg PUBLIC "-//W3C//DTD SVG 1.1//EN"
 "http://www.w3.org/Graphics/SVG/1.1/DTD/svg11.dtd">
<!-- Generated by graphviz version 2.38.0 (20140413.2041)
 -->
<!-- Title: G Pages: 1 -->
<svg width="134pt" height="260pt"
 viewBox="0.00 0.00 134.00 260.00" xmlns="http://www.w3.org/2000/svg" xmlns:xlink="http://www.w3.org/1999/xlink">
<g id="graph0" class="graph" transform="scale(1 1) rotate(0) translate(4 256)">
<title>G</title>
<polygon fill="white" stroke="none" points="-4,4 -4,-256 130,-256 130,4 -4,4"/>
<!-- d -->
<g id="node1" class="node"><title>d</title>
<ellipse fill="none" stroke="black" cx="27" cy="-234" rx="27" ry="18"/>
<text text-anchor="middle" x="27" y="-229.8" font-family="Times,serif" font-size="14.00">d</text>
</g>
<!-- c&#39; -->
<g id="node2" class="node"><title>c&#39;</title>
<ellipse fill="none" stroke="black" cx="27" cy="-162" rx="27" ry="18"/>
<text text-anchor="middle" x="27" y="-157.8" font-family="Times,serif" font-size="14.00">c&#39;</text>
</g>
<!-- d&#45;&gt;c&#39; -->
<g id="edge1" class="edge"><title>d&#45;&gt;c&#39;</title>
<path fill="none" stroke="black" d="M27,-215.697C27,-207.983 27,-198.712 27,-190.112"/>
<polygon fill="black" stroke="black" points="30.5001,-190.104 27,-180.104 23.5001,-190.104 30.5001,-190.104"/>
</g>
<!-- b&#39; -->
<g id="node3" class="node"><title>b&#39;</title>
<ellipse fill="none" stroke="black" cx="27" cy="-90" rx="27" ry="18"/>
<text text-anchor="middle" x="27" y="-85.8" font-family="Times,serif" font-size="14.00">b&#39;</text>
</g>
<!-- c&#39;&#45;&gt;b&#39; -->
<g id="edge2" class="edge"><title>c&#39;&#45;&gt;b&#39;</title>
<path fill="none" stroke="black" d="M27,-143.697C27,-135.983 27,-126.712 27,-118.112"/>
<polygon fill="black" stroke="black" points="30.5001,-118.104 27,-108.104 23.5001,-118.104 30.5001,-118.104"/>
</g>
<!-- a -->
<g id="node4" class="node"><title>a</title>
<ellipse fill="none" stroke="black" cx="58" cy="-18" rx="27" ry="18"/>
<text text-anchor="middle" x="58" y="-13.8" font-family="Times,serif" font-size="14.00">a</text>
</g>
<!-- b&#39;&#45;&gt;a -->
<g id="edge3" class="edge"><title>b&#39;&#45;&gt;a</title>
<path fill="none" stroke="black" d="M34.3466,-72.411C38.0142,-64.1292 42.5333,-53.9249 46.6354,-44.662"/>
<polygon fill="black" stroke="black" points="49.8571,-46.0307 50.7062,-35.4699 43.4566,-43.1962 49.8571,-46.0307"/>
</g>
<!-- b -->
<g id="node5" class="node"><title>b</title>
<ellipse fill="lightgray" stroke="lightgray" cx="99" cy="-162" rx="27" ry="18"/>
<text text-anchor="middle" x="99" y="-157.8" font-family="Times,serif" font-size="14.00">b</text>
</g>
<!-- b&#45;&gt;b&#39; -->
<g id="edge7" class="edge"><title>b&#45;&gt;b&#39;</title>
<path fill="none" stroke="black" stroke-dasharray="1,5" d="M84.4297,-146.834C74.2501,-136.938 60.4761,-123.546 48.9694,-112.359"/>
<polygon fill="black" stroke="black" points="51.4055,-109.846 41.7957,-105.385 46.5259,-114.865 51.4055,-109.846"/>
</g>
<!-- b&#45;&gt;a -->
<g id="edge4" class="edge"><title>b&#45;&gt;a</title>
<path fill="none" stroke="black" d="M94.1358,-144.153C87.108,-119.813 74.0443,-74.5681 65.6991,-45.6651"/>
<polygon fill="black" stroke="black" points="68.9946,-44.4616 62.8579,-35.825 62.2694,-46.4034 68.9946,-44.4616"/>
</g>
<!-- c -->
<g id="node6" class="node"><title>c</title>
<ellipse fill="lightgray" stroke="lightgray" cx="99" cy="-234" rx="27" ry="18"/>
<text text-anchor="middle" x="99" y="-229.8" font-family="Times,serif" font-size="14.00">c</text>
</g>
<!-- c&#45;&gt;c&#39; -->
<g id="edge6" class="edge"><title>c&#45;&gt;c&#39;</title>
<path fill="none" stroke="black" stroke-dasharray="1,5" d="M84.4297,-218.834C74.2501,-208.938 60.4761,-195.546 48.9694,-184.359"/>
<polygon fill="black" stroke="black" points="51.4055,-181.846 41.7957,-177.385 46.5259,-186.865 51.4055,-181.846"/>
</g>
<!-- c&#45;&gt;b -->
<g id="edge5" class="edge"><title>c&#45;&gt;b</title>
<path fill="none" stroke="black" d="M99,-215.697C99,-207.983 99,-198.712 99,-190.112"/>
<polygon fill="black" stroke="black" points="102.5,-190.104 99,-180.104 95.5001,-190.104 102.5,-190.104"/>
</g>
</g>
</svg>
