<?xml version="1.0" encoding="UTF-8" standalone="no"?>
<!DOCTYPE svg PUBLIC "-//W3C//DTD SVG 1.1//EN"
 "http://www.w3.org/Graphics/SVG/1.1/DTD/svg11.dtd">
<!-- Generated by graphviz version 2.38.0 (20140413.2041)
 -->
<!-- Title: G Pages: 1 -->
<svg width="337pt" height="111pt"
 viewBox="0.00 0.00 336.52 110.94" xmlns="http://www.w3.org/2000/svg" xmlns:xlink="http://www.w3.org/1999/xlink">
<g id="graph0" class="graph" transform="scale(1 1) rotate(0) translate(4 106.942)">
<title>G</title>
<polygon fill="white" stroke="none" points="-4,4 -4,-106.942 332.524,-106.942 332.524,4 -4,4"/>
<!-- b -->
<g id="node1" class="node"><title>b</title>
<ellipse fill="lightgray" stroke="lightgray" cx="27" cy="-30.9416" rx="27" ry="18"/>
<text text-anchor="middle" x="27" y="-26.7416" font-family="Times,serif" font-size="14.00">b</text>
</g>
<!-- b&#39;&#39; -->
<g id="node2" class="node"><title>b&#39;&#39;</title>
<ellipse fill="lightgray" stroke="lightgray" cx="117" cy="-84.9416" rx="27" ry="18"/>
<text text-anchor="middle" x="117" y="-80.7416" font-family="Times,serif" font-size="14.00">b&#39;&#39;</text>
</g>
<!-- b&#45;&gt;b&#39;&#39; -->
<g id="edge1" class="edge"><title>b&#45;&gt;b&#39;&#39;</title>
<path fill="none" stroke="black" stroke-dasharray="1,5" d="M47.5301,-42.926C59.3788,-50.1968 74.6989,-59.5978 87.8424,-67.6631"/>
<polygon fill="black" stroke="black" points="86.1707,-70.7437 96.5245,-72.9908 89.8319,-64.7774 86.1707,-70.7437"/>
</g>
<!-- a -->
<g id="node3" class="node"><title>a</title>
<ellipse fill="none" stroke="black" cx="301.524" cy="-45.9416" rx="27" ry="18"/>
<text text-anchor="middle" x="301.524" y="-41.7416" font-family="Times,serif" font-size="14.00">a</text>
</g>
<!-- b&#45;&gt;a -->
<g id="edge7" class="edge"><title>b&#45;&gt;a</title>
<path fill="none" stroke="black" d="M48.2439,-19.5995C60.0304,-13.6508 75.4031,-6.98207 90,-3.94162 153.707,9.32813 228.444,-15.041 269.53,-31.8791"/>
<polygon fill="black" stroke="black" points="268.408,-35.2042 278.982,-35.8653 271.128,-28.7543 268.408,-35.2042"/>
</g>
<!-- b&#39; -->
<g id="node4" class="node"><title>b&#39;</title>
<ellipse fill="lightgray" stroke="lightgray" cx="117" cy="-30.9416" rx="27" ry="18"/>
<text text-anchor="middle" x="117" y="-26.7416" font-family="Times,serif" font-size="14.00">b&#39;</text>
</g>
<!-- b&#45;&gt;b&#39; -->
<g id="edge3" class="edge"><title>b&#45;&gt;b&#39;</title>
<path fill="none" stroke="black" stroke-dasharray="1,5" d="M54.4029,-30.9416C62.3932,-30.9416 71.3106,-30.9416 79.8241,-30.9416"/>
<polygon fill="black" stroke="black" points="79.919,-34.4417 89.919,-30.9416 79.919,-27.4417 79.919,-34.4417"/>
</g>
<!-- b&#39;&#39;&#45;&gt;a -->
<g id="edge2" class="edge"><title>b&#39;&#39;&#45;&gt;a</title>
<path fill="none" stroke="black" d="M141.375,-92.7554C166.198,-99.7648 206.228,-107.341 238.524,-95.9416 254.204,-90.4068 268.833,-79.0396 279.939,-68.5404"/>
<polygon fill="black" stroke="black" points="282.406,-71.0231 287.034,-61.4927 277.473,-66.0566 282.406,-71.0231"/>
</g>
<!-- newb -->
<g id="node5" class="node"><title>newb</title>
<ellipse fill="none" stroke="black" cx="209.262" cy="-68.9416" rx="29.0257" ry="18"/>
<text text-anchor="middle" x="209.262" y="-64.7416" font-family="Times,serif" font-size="14.00">newb</text>
</g>
<!-- b&#39;&#39;&#45;&gt;newb -->
<g id="edge6" class="edge"><title>b&#39;&#39;&#45;&gt;newb</title>
<path fill="none" stroke="black" stroke-dasharray="1,5" d="M143.624,-80.3995C152.107,-78.8958 161.727,-77.1904 170.906,-75.5634"/>
<polygon fill="black" stroke="black" points="171.761,-78.9665 180.997,-73.7747 170.539,-72.0739 171.761,-78.9665"/>
</g>
<!-- b&#39;&#45;&gt;a -->
<g id="edge4" class="edge"><title>b&#39;&#45;&gt;a</title>
<path fill="none" stroke="black" d="M144.151,-33.0908C175.596,-35.6749 228.56,-40.0275 264.021,-42.9418"/>
<polygon fill="black" stroke="black" points="264.168,-46.4656 274.421,-43.7965 264.741,-39.4891 264.168,-46.4656"/>
</g>
<!-- b&#39;&#45;&gt;newb -->
<g id="edge5" class="edge"><title>b&#39;&#45;&gt;newb</title>
<path fill="none" stroke="black" stroke-dasharray="1,5" d="M140.312,-40.3349C150.835,-44.7649 163.603,-50.1404 175.219,-55.0304"/>
<polygon fill="black" stroke="black" points="174.055,-58.3381 184.63,-58.9925 176.771,-51.8865 174.055,-58.3381"/>
</g>
<!-- newb&#45;&gt;a -->
<g id="edge8" class="edge"><title>newb&#45;&gt;a</title>
<path fill="none" stroke="black" d="M236.855,-62.1653C246.041,-59.8246 256.467,-57.168 266.183,-54.692"/>
<polygon fill="black" stroke="black" points="267.145,-58.0589 275.971,-52.198 265.417,-51.2757 267.145,-58.0589"/>
</g>
</g>
</svg>
