<?xml version="1.0" encoding="UTF-8" standalone="no"?>
<!DOCTYPE svg PUBLIC "-//W3C//DTD SVG 1.1//EN"
 "http://www.w3.org/Graphics/SVG/1.1/DTD/svg11.dtd">
<!-- Generated by graphviz version 2.38.0 (20140413.2041)
 -->
<!-- Title: G Pages: 1 -->
<svg width="242pt" height="67pt"
 viewBox="0.00 0.00 242.00 67.00" xmlns="http://www.w3.org/2000/svg" xmlns:xlink="http://www.w3.org/1999/xlink">
<g id="graph0" class="graph" transform="scale(1 1) rotate(0) translate(4 63)">
<title>G</title>
<polygon fill="white" stroke="none" points="-4,4 -4,-63 238,-63 238,4 -4,4"/>
<!-- b -->
<g id="node1" class="node"><title>b</title>
<ellipse fill="lightgray" stroke="lightgray" cx="27" cy="-41" rx="27" ry="18"/>
<text text-anchor="middle" x="27" y="-36.8" font-family="Times,serif" font-size="14.00">b</text>
</g>
<!-- b&#39;&#39; -->
<g id="node2" class="node"><title>b&#39;&#39;</title>
<ellipse fill="none" stroke="black" cx="117" cy="-41" rx="27" ry="18"/>
<text text-anchor="middle" x="117" y="-36.8" font-family="Times,serif" font-size="14.00">b&#39;&#39;</text>
</g>
<!-- b&#45;&gt;b&#39;&#39; -->
<g id="edge1" class="edge"><title>b&#45;&gt;b&#39;&#39;</title>
<path fill="none" stroke="black" stroke-dasharray="1,5" d="M54.4029,-41C62.3932,-41 71.3106,-41 79.8241,-41"/>
<polygon fill="black" stroke="black" points="79.919,-44.5001 89.919,-41 79.919,-37.5001 79.919,-44.5001"/>
</g>
<!-- a -->
<g id="node3" class="node"><title>a</title>
<ellipse fill="none" stroke="black" cx="207" cy="-18" rx="27" ry="18"/>
<text text-anchor="middle" x="207" y="-13.8" font-family="Times,serif" font-size="14.00">a</text>
</g>
<!-- b&#45;&gt;a -->
<g id="edge3" class="edge"><title>b&#45;&gt;a</title>
<path fill="none" stroke="black" d="M48.2439,-29.6579C60.0304,-23.7091 75.4031,-17.0404 90,-14 116.516,-8.47676 147.167,-9.85626 170.3,-12.4125"/>
<polygon fill="black" stroke="black" points="170.006,-15.9026 180.358,-13.6493 170.86,-8.95491 170.006,-15.9026"/>
</g>
<!-- b&#39;&#39;&#45;&gt;a -->
<g id="edge2" class="edge"><title>b&#39;&#39;&#45;&gt;a</title>
<path fill="none" stroke="black" d="M142.513,-34.5932C151.572,-32.2256 162.012,-29.497 171.775,-26.9452"/>
<polygon fill="black" stroke="black" points="172.829,-30.2874 181.619,-24.3724 171.058,-23.5149 172.829,-30.2874"/>
</g>
</g>
</svg>
