<?xml version="1.0" encoding="UTF-8" standalone="no"?>
<!DOCTYPE svg PUBLIC "-//W3C//DTD SVG 1.1//EN"
 "http://www.w3.org/Graphics/SVG/1.1/DTD/svg11.dtd">
<!-- Generated by graphviz version 2.38.0 (20140413.2041)
 -->
<!-- Title: G Pages: 1 -->
<svg width="157pt" height="260pt"
 viewBox="0.00 0.00 157.04 260.00" xmlns="http://www.w3.org/2000/svg" xmlns:xlink="http://www.w3.org/1999/xlink">
<g id="graph0" class="graph" transform="scale(1 1) rotate(0) translate(4 256)">
<title>G</title>
<polygon fill="white" stroke="none" points="-4,4 -4,-256 153.038,-256 153.038,4 -4,4"/>
<!-- d -->
<g id="node1" class="node"><title>d</title>
<ellipse fill="none" stroke="black" cx="100" cy="-90" rx="27" ry="18"/>
<text text-anchor="middle" x="100" y="-85.8" font-family="Times,serif" font-size="14.00">d</text>
</g>
<!-- a -->
<g id="node2" class="node"><title>a</title>
<ellipse fill="none" stroke="black" cx="64" cy="-18" rx="27" ry="18"/>
<text text-anchor="middle" x="64" y="-13.8" font-family="Times,serif" font-size="14.00">a</text>
</g>
<!-- d&#45;&gt;a -->
<g id="edge1" class="edge"><title>d&#45;&gt;a</title>
<path fill="none" stroke="black" d="M91.6504,-72.7646C87.2885,-64.2831 81.8531,-53.7144 76.9587,-44.1974"/>
<polygon fill="black" stroke="black" points="79.9904,-42.4395 72.3043,-35.1473 73.7654,-45.6409 79.9904,-42.4395"/>
</g>
<!-- b -->
<g id="node3" class="node"><title>b</title>
<ellipse fill="none" stroke="black" cx="28" cy="-90" rx="27" ry="18"/>
<text text-anchor="middle" x="28" y="-85.8" font-family="Times,serif" font-size="14.00">b</text>
</g>
<!-- b&#45;&gt;a -->
<g id="edge2" class="edge"><title>b&#45;&gt;a</title>
<path fill="none" stroke="black" d="M36.3496,-72.7646C40.7115,-64.2831 46.1469,-53.7144 51.0413,-44.1974"/>
<polygon fill="black" stroke="black" points="54.2346,-45.6409 55.6957,-35.1473 48.0096,-42.4395 54.2346,-45.6409"/>
</g>
<!-- c -->
<g id="node4" class="node"><title>c</title>
<ellipse fill="none" stroke="black" cx="27" cy="-162" rx="27" ry="18"/>
<text text-anchor="middle" x="27" y="-157.8" font-family="Times,serif" font-size="14.00">c</text>
</g>
<!-- c&#45;&gt;b -->
<g id="edge3" class="edge"><title>c&#45;&gt;b</title>
<path fill="none" stroke="black" d="M27.2472,-143.697C27.3574,-135.983 27.4898,-126.712 27.6127,-118.112"/>
<polygon fill="black" stroke="black" points="31.1124,-118.153 27.7557,-108.104 24.1131,-118.053 31.1124,-118.153"/>
</g>
<!-- newb -->
<g id="node5" class="node"><title>newb</title>
<ellipse fill="none" stroke="black" cx="101" cy="-162" rx="29.0257" ry="18"/>
<text text-anchor="middle" x="101" y="-157.8" font-family="Times,serif" font-size="14.00">newb</text>
</g>
<!-- newb&#45;&gt;d -->
<g id="edge4" class="edge"><title>newb&#45;&gt;d</title>
<path fill="none" stroke="black" d="M100.753,-143.697C100.643,-135.983 100.51,-126.712 100.387,-118.112"/>
<polygon fill="black" stroke="black" points="103.887,-118.053 100.244,-108.104 96.8876,-118.153 103.887,-118.053"/>
</g>
<!-- remote/master -->
<g id="node6" class="node"><title>remote/master</title>
<text text-anchor="middle" x="101" y="-229.8" font-family="Times,serif" font-size="14.00">remote/master</text>
</g>
<!-- remote/master&#45;&gt;newb -->
<g id="edge5" class="edge"><title>remote/master&#45;&gt;newb</title>
<path fill="none" stroke="red" d="M101,-215.697C101,-207.983 101,-198.712 101,-190.112"/>
<polygon fill="red" stroke="red" points="104.5,-190.104 101,-180.104 97.5001,-190.104 104.5,-190.104"/>
</g>
</g>
</svg>
